# xmcd
#
# Track frame offsets:
#	150
#	5413
#	20777
#	33312
#	39606
#	57648
#
# Disc length: 1031 seconds
#
# Revision: 1
# Processed by: cddbd v1.5.1PL0 Copyright (c) Steve Scherf et al.
# Submitted via: CDex 1.50Beta5
#
DISCID=4b040506
DTITLE=Quinka With A Yawn - QY7
DYEAR=2002
DGENRE=Pop
TTITLE0=ナポリタン
TTITLE1=For Poor Little Nietchie
TTITLE2=真夏の蜃気楼
TTITLE3=めくばせするカギ
TTITLE4=花びら・読み捨て
TTITLE5=ナポリ
EXTD=
EXTT0=
EXTT1=
EXTT2=
EXTT3=
EXTT4=
EXTT5=
PLAYORDER=
